<?xml version="1.0" encoding="UTF-8" standalone="no"?><!DOCTYPE svg PUBLIC "-//W3C//DTD SVG 1.1//EN" "http://www.w3.org/Graphics/SVG/1.1/DTD/svg11.dtd"><svg width="100%" height="100%" viewBox="0 0 10000 7071" version="1.1" xmlns="http://www.w3.org/2000/svg" xmlns:xlink="http://www.w3.org/1999/xlink" xml:space="preserve" xmlns:serif="http://www.serif.com/" style="fill-rule:evenodd;clip-rule:evenodd;stroke-linecap:round;stroke-linejoin:round;stroke-miterlimit:1.5;"><g id="marunouchi_line"><path d="M688.937,5661.26C671.689,5661.26 657.687,5647.26 657.687,5630.01C657.687,5612.76 671.689,5598.76 688.937,5598.76L8649.15,5598.76C8666.4,5598.76 8680.4,5612.76 8680.4,5630.01C8680.4,5647.26 8666.4,5661.26 8649.15,5661.26L688.937,5661.26Z" style="fill:#b90c0c;"/><path d="M721.538,1510.19C704.29,1510.19 690.288,1496.19 690.288,1478.94C690.288,1461.69 704.29,1447.69 721.538,1447.69L8649.15,1447.69C8666.4,1447.69 8680.4,1461.69 8680.4,1478.94C8680.4,1496.19 8666.4,1510.19 8649.15,1510.19L721.538,1510.19Z" style="fill:#b90c0c;"/><path d="M8680.4,5630.01C8680.4,5647.26 8666.4,5661.26 8649.15,5661.26C8631.91,5661.26 8617.9,5647.26 8617.9,5630.01L8617.9,1484.63C8617.9,1467.38 8631.91,1453.38 8649.15,1453.38C8666.4,1453.38 8680.4,1467.38 8680.4,1484.63L8680.4,5630.01Z" style="fill:#b90c0c;"/></g><g id="M1"><circle cx="681.617" cy="5630.01" r="223.2" style="fill:#ebebeb;stroke:#000c0c;stroke-width:20.83px;"/><g transform="matrix(186,0,0,186,855.62,5700.97)"></g><text x="510.776px" y="5700.97px" style="font-family:'AppleSDGothicNeo-Bold', 'Apple SD Gothic Neo';font-weight:700;font-size:186px;">M0<tspan x="785.87px " y="5700.97px ">1</tspan></text><text id="eki_kanzi" x="369.169px" y="5319.05px" style="font-family:'PingFangSC-Regular', 'PingFang SC', sans-serif;font-size:104.167px;">駅駅駅駅駅駅</text><text id="eki_furigana" x="611.209px" y="5210.14px" style="font-family:'PingFangSC-Regular', 'PingFang SC', sans-serif;font-size:70.833px;">えき</text><g id="eki_en" transform="matrix(145.833,0,0,145.833,1027.39,6035.22)"></g><text x="335.409px" y="6035.22px" style="font-family:'AppleSDGothicNeo-Regular', 'Apple SD Gothic Neo';font-size:145.833px;">stationTe<tspan x="906.784px " y="6035.22px ">x</tspan>t</text></g><g id="M2"><circle cx="1484.89" cy="5630.01" r="223.2" style="fill:#ebebeb;stroke:#000c0c;stroke-width:20.83px;"/><g transform="matrix(186,0,0,186,1668.57,5700.97)"></g><text x="1294.89px" y="5700.97px" style="font-family:'AppleSDGothicNeo-Bold', 'Apple SD Gothic Neo';font-weight:700;font-size:186px;">M0<tspan x="1569.06px " y="5700.97px ">2</tspan></text><text id="eki_kanzi1" serif:id="eki_kanzi" x="1172.44px" y="5319.05px" style="font-family:'PingFangSC-Regular', 'PingFang SC', sans-serif;font-size:104.167px;">駅駅駅駅駅駅</text><text id="eki_furigana1" serif:id="eki_furigana" x="1414.48px" y="5210.14px" style="font-family:'PingFangSC-Regular', 'PingFang SC', sans-serif;font-size:70.833px;">えき</text><g id="eki_en1" serif:id="eki_en" transform="matrix(145.833,0,0,145.833,1830.66,6035.22)"></g><text x="1138.68px" y="6035.22px" style="font-family:'AppleSDGothicNeo-Regular', 'Apple SD Gothic Neo';font-size:145.833px;">stationTe<tspan x="1710.06px " y="6035.22px ">x</tspan>t</text></g><g id="M3"><circle cx="2288.17" cy="5630.01" r="223.2" style="fill:#ebebeb;stroke:#000c0c;stroke-width:20.83px;"/><g transform="matrix(186,0,0,186,2471.38,5700.97)"></g><text x="2098.63px" y="5700.97px" style="font-family:'AppleSDGothicNeo-Bold', 'Apple SD Gothic Neo';font-weight:700;font-size:186px;">M0<tspan x="2371.68px " y="5700.97px ">3</tspan></text><text id="eki_kanzi2" serif:id="eki_kanzi" x="1975.72px" y="5319.05px" style="font-family:'PingFangSC-Regular', 'PingFang SC', sans-serif;font-size:104.167px;">駅駅駅駅駅駅</text><text id="eki_furigana2" serif:id="eki_furigana" x="2217.76px" y="5210.14px" style="font-family:'PingFangSC-Regular', 'PingFang SC', sans-serif;font-size:70.833px;">えき</text><g id="eki_en2" serif:id="eki_en" transform="matrix(145.833,0,0,145.833,2633.94,6035.22)"></g><text x="1941.96px" y="6035.22px" style="font-family:'AppleSDGothicNeo-Regular', 'Apple SD Gothic Neo';font-size:145.833px;">stationTe<tspan x="2513.33px " y="6035.22px ">x</tspan>t</text></g><g id="M4"><circle cx="3091.44" cy="5630.01" r="223.2" style="fill:#ebebeb;stroke:#000c0c;stroke-width:20.83px;"/><g transform="matrix(186,0,0,186,3279.86,5700.97)"></g><text x="2893.72px" y="5700.97px" style="font-family:'AppleSDGothicNeo-Bold', 'Apple SD Gothic Neo';font-weight:700;font-size:186px;">M04</text><text id="eki_kanzi3" serif:id="eki_kanzi" x="2778.99px" y="5319.05px" style="font-family:'PingFangSC-Regular', 'PingFang SC', sans-serif;font-size:104.167px;">駅駅駅駅駅駅</text><text id="eki_furigana3" serif:id="eki_furigana" x="3021.03px" y="5210.14px" style="font-family:'PingFangSC-Regular', 'PingFang SC', sans-serif;font-size:70.833px;">えき</text><g id="eki_en3" serif:id="eki_en" transform="matrix(145.833,0,0,145.833,3437.21,6035.22)"></g><text x="2745.23px" y="6035.22px" style="font-family:'AppleSDGothicNeo-Regular', 'Apple SD Gothic Neo';font-size:145.833px;">stationTe<tspan x="3316.61px " y="6035.22px ">x</tspan>t</text></g><g id="M5"><circle cx="3894.72" cy="5630.01" r="223.2" style="fill:#ebebeb;stroke:#000c0c;stroke-width:20.83px;"/><g transform="matrix(186,0,0,186,4076.9,5700.97)"></g><text x="3704.53px" y="5700.97px" style="font-family:'AppleSDGothicNeo-Bold', 'Apple SD Gothic Neo';font-weight:700;font-size:186px;">M05</text><text id="eki_kanzi4" serif:id="eki_kanzi" x="3582.27px" y="5319.05px" style="font-family:'PingFangSC-Regular', 'PingFang SC', sans-serif;font-size:104.167px;">駅駅駅駅駅駅</text><text id="eki_furigana4" serif:id="eki_furigana" x="3824.31px" y="5210.14px" style="font-family:'PingFangSC-Regular', 'PingFang SC', sans-serif;font-size:70.833px;">えき</text><g id="eki_en4" serif:id="eki_en" transform="matrix(145.833,0,0,145.833,4240.49,6035.22)"></g><text x="3548.51px" y="6035.22px" style="font-family:'AppleSDGothicNeo-Regular', 'Apple SD Gothic Neo';font-size:145.833px;">stationTe<tspan x="4119.88px " y="6035.22px ">x</tspan>t</text></g><g id="M6"><circle cx="4697.99" cy="5630.01" r="223.2" style="fill:#ebebeb;stroke:#000c0c;stroke-width:20.83px;"/><g transform="matrix(186,0,0,186,4886.6,5700.97)"></g><text x="4502.32px" y="5700.97px" style="font-family:'AppleSDGothicNeo-Bold', 'Apple SD Gothic Neo';font-weight:700;font-size:186px;">M06</text><text id="eki_kanzi5" serif:id="eki_kanzi" x="4385.54px" y="5319.05px" style="font-family:'PingFangSC-Regular', 'PingFang SC', sans-serif;font-size:104.167px;">駅駅駅駅駅駅</text><text id="eki_furigana5" serif:id="eki_furigana" x="4627.58px" y="5210.14px" style="font-family:'PingFangSC-Regular', 'PingFang SC', sans-serif;font-size:70.833px;">えき</text><g id="eki_en5" serif:id="eki_en" transform="matrix(145.833,0,0,145.833,5043.76,6035.22)"></g><text x="4351.78px" y="6035.22px" style="font-family:'AppleSDGothicNeo-Regular', 'Apple SD Gothic Neo';font-size:145.833px;">stationTe<tspan x="4923.16px " y="6035.22px ">x</tspan>t</text></g><g id="M7"><circle cx="5510.95" cy="5630.01" r="223.2" style="fill:#ebebeb;stroke:#000c0c;stroke-width:20.83px;"/><g transform="matrix(186,0,0,186,5690.35,5700.97)"></g><text x="5322.62px" y="5700.97px" style="font-family:'AppleSDGothicNeo-Bold', 'Apple SD Gothic Neo';font-weight:700;font-size:186px;">M0<tspan x="5594.56px " y="5700.97px ">7</tspan></text><text id="eki_kanzi6" serif:id="eki_kanzi" x="5188.82px" y="5319.05px" style="font-family:'PingFangSC-Regular', 'PingFang SC', sans-serif;font-size:104.167px;">駅駅駅駅駅駅</text><text id="eki_furigana6" serif:id="eki_furigana" x="5430.86px" y="5210.14px" style="font-family:'PingFangSC-Regular', 'PingFang SC', sans-serif;font-size:70.833px;">えき</text><g id="eki_en6" serif:id="eki_en" transform="matrix(145.833,0,0,145.833,5847.04,6035.22)"></g><text x="5155.06px" y="6035.22px" style="font-family:'AppleSDGothicNeo-Regular', 'Apple SD Gothic Neo';font-size:145.833px;">stationTe<tspan x="5726.43px " y="6035.22px ">x</tspan>t</text></g><g id="M8"><circle cx="6304.54" cy="5630.01" r="223.2" style="fill:#ebebeb;stroke:#000c0c;stroke-width:20.83px;"/><g transform="matrix(186,0,0,186,6494.45,5700.97)"></g><text x="6107.01px" y="5700.97px" style="font-family:'AppleSDGothicNeo-Bold', 'Apple SD Gothic Neo';font-weight:700;font-size:186px;">M08</text><text id="eki_kanzi7" serif:id="eki_kanzi" x="5992.09px" y="5319.05px" style="font-family:'PingFangSC-Regular', 'PingFang SC', sans-serif;font-size:104.167px;">駅駅駅駅駅駅</text><text id="eki_furigana7" serif:id="eki_furigana" x="6234.13px" y="5210.14px" style="font-family:'PingFangSC-Regular', 'PingFang SC', sans-serif;font-size:70.833px;">えき</text><g id="eki_en7" serif:id="eki_en" transform="matrix(145.833,0,0,145.833,6650.31,6035.22)"></g><text x="5958.33px" y="6035.22px" style="font-family:'AppleSDGothicNeo-Regular', 'Apple SD Gothic Neo';font-size:145.833px;">stationTe<tspan x="6529.71px " y="6035.22px ">x</tspan>t</text></g><g id="M9"><circle cx="7107.82" cy="5630.01" r="223.2" style="fill:#ebebeb;stroke:#000c0c;stroke-width:20.83px;"/><g transform="matrix(186,0,0,186,7296.79,5700.97)"></g><text x="6913.45px" y="5700.97px" style="font-family:'AppleSDGothicNeo-Bold', 'Apple SD Gothic Neo';font-weight:700;font-size:186px;">M0<tspan x="7189.47px " y="5700.97px ">9</tspan></text><text id="eki_kanzi8" serif:id="eki_kanzi" x="6812.09px" y="5319.05px" style="font-family:'PingFangSC-Regular', 'PingFang SC', sans-serif;font-size:104.167px;">駅駅駅駅駅駅</text><text id="eki_furigana8" serif:id="eki_furigana" x="7054.13px" y="5210.14px" style="font-family:'PingFangSC-Regular', 'PingFang SC', sans-serif;font-size:70.833px;">えき</text><g id="eki_en8" serif:id="eki_en" transform="matrix(145.833,0,0,145.833,7470.31,6035.22)"></g><text x="6778.33px" y="6035.22px" style="font-family:'AppleSDGothicNeo-Regular', 'Apple SD Gothic Neo';font-size:145.833px;">stationTe<tspan x="7349.71px " y="6035.22px ">x</tspan>t</text></g><g id="M10"><circle cx="7911.09" cy="5630.01" r="223.2" style="fill:#ebebeb;stroke:#000c0c;stroke-width:20.83px;"/><g transform="matrix(186,0,0,186,8082.58,5700.97)"></g><text x="7735.88px" y="5700.97px" style="font-family:'AppleSDGothicNeo-Bold', 'Apple SD Gothic Neo';font-weight:700;font-size:186px;">M10</text><text id="eki_kanzi9" serif:id="eki_kanzi" x="7598.64px" y="5319.05px" style="font-family:'PingFangSC-Regular', 'PingFang SC', sans-serif;font-size:104.167px;">駅駅駅駅駅駅</text><text id="eki_furigana9" serif:id="eki_furigana" x="7840.68px" y="5210.14px" style="font-family:'PingFangSC-Regular', 'PingFang SC', sans-serif;font-size:70.833px;">えき</text><g id="eki_en9" serif:id="eki_en" transform="matrix(145.833,0,0,145.833,8256.86,6035.22)"></g><text x="7564.88px" y="6035.22px" style="font-family:'AppleSDGothicNeo-Regular', 'Apple SD Gothic Neo';font-size:145.833px;">stationTe<tspan x="8136.26px " y="6035.22px ">x</tspan>t</text></g><g id="M11"><circle cx="8649.15" cy="5189.3" r="223.2" style="fill:#ebebeb;stroke:#000c0c;stroke-width:20.83px;"/><g transform="matrix(186,0,0,186,8798.42,5260.44)"></g><text x="8503.05px" y="5260.44px" style="font-family:'AppleSDGothicNeo-Bold', 'Apple SD Gothic Neo';font-weight:700;font-size:186px;">M1<tspan x="8728.67px " y="5260.44px ">1</tspan></text><text id="eki_kanzi10" serif:id="eki_kanzi" x="9005.93px" y="5205.34px" style="font-family:'PingFangSC-Regular', 'PingFang SC', sans-serif;font-size:104.167px;">駅駅駅駅駅駅</text><text id="eki_furigana10" serif:id="eki_furigana" x="9247.97px" y="5061.04px" style="font-family:'PingFangSC-Regular', 'PingFang SC', sans-serif;font-size:70.833px;">えき</text><g id="eki_en10" serif:id="eki_en" transform="matrix(145.833,0,0,145.833,9664.15,5379.4)"></g><text x="8972.17px" y="5379.4px" style="font-family:'AppleSDGothicNeo-Regular', 'Apple SD Gothic Neo';font-size:145.833px;">stationTe<tspan x="9543.55px " y="5379.4px ">x</tspan>t</text></g><g id="M12"><circle cx="8649.15" cy="4374.73" r="223.2" style="fill:#ebebeb;stroke:#000c0c;stroke-width:20.83px;"/><g transform="matrix(186,0,0,186,8809.02,4446.44)"></g><text x="8482.96px" y="4446.44px" style="font-family:'AppleSDGothicNeo-Bold', 'Apple SD Gothic Neo';font-weight:700;font-size:186px;">M12</text><text id="eki_kanzi11" serif:id="eki_kanzi" x="9005.93px" y="4390.77px" style="font-family:'PingFangSC-Regular', 'PingFang SC', sans-serif;font-size:104.167px;">駅駅駅駅駅駅</text><text id="eki_furigana11" serif:id="eki_furigana" x="9247.97px" y="4246.47px" style="font-family:'PingFangSC-Regular', 'PingFang SC', sans-serif;font-size:70.833px;">えき</text><g id="eki_en11" serif:id="eki_en" transform="matrix(145.833,0,0,145.833,9664.15,4564.83)"></g><text x="8972.17px" y="4564.83px" style="font-family:'AppleSDGothicNeo-Regular', 'Apple SD Gothic Neo';font-size:145.833px;">stationTe<tspan x="9543.55px " y="4564.83px ">x</tspan>t</text></g><g id="M13"><circle cx="8649.15" cy="3560.16" r="223.2" style="fill:#ebebeb;stroke:#000c0c;stroke-width:20.83px;"/><g transform="matrix(186,0,0,186,8809.02,3631.31)"></g><text x="8482.78px" y="3631.31px" style="font-family:'AppleSDGothicNeo-Bold', 'Apple SD Gothic Neo';font-weight:700;font-size:186px;">M13</text><text id="eki_kanzi12" serif:id="eki_kanzi" x="9005.93px" y="3576.2px" style="font-family:'PingFangSC-Regular', 'PingFang SC', sans-serif;font-size:104.167px;">駅駅駅駅駅駅</text><text id="eki_furigana12" serif:id="eki_furigana" x="9247.97px" y="3431.9px" style="font-family:'PingFangSC-Regular', 'PingFang SC', sans-serif;font-size:70.833px;">えき</text><g id="eki_en12" serif:id="eki_en" transform="matrix(145.833,0,0,145.833,9664.15,3750.26)"></g><text x="8972.17px" y="3750.26px" style="font-family:'AppleSDGothicNeo-Regular', 'Apple SD Gothic Neo';font-size:145.833px;">stationTe<tspan x="9543.55px " y="3750.26px ">x</tspan>t</text></g><g id="M14"><circle cx="8649.15" cy="2745.6" r="223.2" style="fill:#ebebeb;stroke:#000c0c;stroke-width:20.83px;"/><g transform="matrix(186,0,0,186,8812.27,2816.09)"></g><text x="8476.55px" y="2816.09px" style="font-family:'AppleSDGothicNeo-Bold', 'Apple SD Gothic Neo';font-weight:700;font-size:186px;">M14</text><text id="eki_kanzi13" serif:id="eki_kanzi" x="9005.93px" y="2761.63px" style="font-family:'PingFangSC-Regular', 'PingFang SC', sans-serif;font-size:104.167px;">駅駅駅駅駅駅</text><text id="eki_furigana13" serif:id="eki_furigana" x="9247.97px" y="2617.33px" style="font-family:'PingFangSC-Regular', 'PingFang SC', sans-serif;font-size:70.833px;">えき</text><g id="eki_en13" serif:id="eki_en" transform="matrix(145.833,0,0,145.833,9664.15,2935.7)"></g><text x="8972.17px" y="2935.7px" style="font-family:'AppleSDGothicNeo-Regular', 'Apple SD Gothic Neo';font-size:145.833px;">stationTe<tspan x="9543.55px " y="2935.7px ">x</tspan>t</text></g><g id="M15"><circle cx="8649.15" cy="1931.03" r="223.2" style="fill:#ebebeb;stroke:#000c0c;stroke-width:20.83px;"/><g transform="matrix(186,0,0,186,8806.14,2001.62)"></g><text x="8484.17px" y="2001.62px" style="font-family:'AppleSDGothicNeo-Bold', 'Apple SD Gothic Neo';font-weight:700;font-size:186px;">M15</text><text id="eki_kanzi14" serif:id="eki_kanzi" x="9005.93px" y="1939.31px" style="font-family:'PingFangSC-Regular', 'PingFang SC', sans-serif;font-size:104.167px;">駅駅駅駅駅駅</text><text id="eki_furigana14" serif:id="eki_furigana" x="9247.97px" y="1795.01px" style="font-family:'PingFangSC-Regular', 'PingFang SC', sans-serif;font-size:70.833px;">えき</text><g id="eki_en14" serif:id="eki_en" transform="matrix(145.833,0,0,145.833,9664.15,2113.37)"></g><text x="8972.17px" y="2113.37px" style="font-family:'AppleSDGothicNeo-Regular', 'Apple SD Gothic Neo';font-size:145.833px;">stationTe<tspan x="9543.55px " y="2113.37px ">x</tspan>t</text></g><g id="M16"><circle cx="7943.69" cy="1478.94" r="223.2" style="fill:#ebebeb;stroke:#000c0c;stroke-width:20.83px;"/><g transform="matrix(186,0,0,186,8107.09,1549.81)"></g><text x="7773.22px" y="1549.81px" style="font-family:'AppleSDGothicNeo-Bold', 'Apple SD Gothic Neo';font-weight:700;font-size:186px;">M16</text><text id="eki_kanzi15" serif:id="eki_kanzi" x="7620.28px" y="1206.23px" style="font-family:'PingFangSC-Regular', 'PingFang SC', sans-serif;font-size:104.167px;">駅駅駅駅駅駅</text><text id="eki_furigana15" serif:id="eki_furigana" x="7862.32px" y="1097.32px" style="font-family:'PingFangSC-Regular', 'PingFang SC', sans-serif;font-size:70.833px;">えき</text><g id="eki_en15" serif:id="eki_en" transform="matrix(145.833,0,0,145.833,8278.5,1922.4)"></g><text x="7586.52px" y="1922.4px" style="font-family:'AppleSDGothicNeo-Regular', 'Apple SD Gothic Neo';font-size:145.833px;">stationTe<tspan x="8157.89px " y="1922.4px ">x</tspan>t</text></g><g id="M17"><circle cx="7140.42" cy="1478.94" r="223.2" style="fill:#ebebeb;stroke:#000c0c;stroke-width:20.83px;"/><g transform="matrix(186,0,0,186,7297.12,1550.09)"></g><text x="6974.78px" y="1550.09px" style="font-family:'AppleSDGothicNeo-Bold', 'Apple SD Gothic Neo';font-weight:700;font-size:186px;">M17</text><text id="eki_kanzi16" serif:id="eki_kanzi" x="6812.09px" y="1206.23px" style="font-family:'PingFangSC-Regular', 'PingFang SC', sans-serif;font-size:104.167px;">駅駅駅駅駅駅</text><text id="eki_furigana16" serif:id="eki_furigana" x="7054.13px" y="1097.32px" style="font-family:'PingFangSC-Regular', 'PingFang SC', sans-serif;font-size:70.833px;">えき</text><g id="eki_en16" serif:id="eki_en" transform="matrix(145.833,0,0,145.833,7470.31,1922.4)"></g><text x="6778.33px" y="1922.4px" style="font-family:'AppleSDGothicNeo-Regular', 'Apple SD Gothic Neo';font-size:145.833px;">stationTe<tspan x="7349.71px " y="1922.4px ">x</tspan>t</text></g><g id="M18"><circle cx="6337.14" cy="1478.94" r="223.2" style="fill:#ebebeb;stroke:#000c0c;stroke-width:20.83px;"/><g transform="matrix(186,0,0,186,6501.85,1549.9)"></g><text x="6164.81px" y="1549.9px" style="font-family:'AppleSDGothicNeo-Bold', 'Apple SD Gothic Neo';font-weight:700;font-size:186px;">M18</text><text id="eki_kanzi17" serif:id="eki_kanzi" x="6003.9px" y="1206.23px" style="font-family:'PingFangSC-Regular', 'PingFang SC', sans-serif;font-size:104.167px;">駅駅駅駅駅駅</text><text id="eki_furigana17" serif:id="eki_furigana" x="6245.94px" y="1097.32px" style="font-family:'PingFangSC-Regular', 'PingFang SC', sans-serif;font-size:70.833px;">えき</text><g id="eki_en17" serif:id="eki_en" transform="matrix(145.833,0,0,145.833,6662.12,1922.4)"></g><text x="5970.14px" y="1922.4px" style="font-family:'AppleSDGothicNeo-Regular', 'Apple SD Gothic Neo';font-size:145.833px;">stationTe<tspan x="6541.52px " y="1922.4px ">x</tspan>t</text></g><g id="M19"><circle cx="5543.55" cy="1478.94" r="223.2" style="fill:#ebebeb;stroke:#000c0c;stroke-width:20.83px;"/><g transform="matrix(186,0,0,186,5707.79,1549.9)"></g><text x="5373.92px" y="1549.9px" style="font-family:'AppleSDGothicNeo-Bold', 'Apple SD Gothic Neo';font-weight:700;font-size:186px;">M19</text><text id="eki_kanzi18" serif:id="eki_kanzi" x="5231.1px" y="1206.23px" style="font-family:'PingFangSC-Regular', 'PingFang SC', sans-serif;font-size:104.167px;">駅駅駅駅駅駅</text><text id="eki_furigana18" serif:id="eki_furigana" x="5473.14px" y="1097.32px" style="font-family:'PingFangSC-Regular', 'PingFang SC', sans-serif;font-size:70.833px;">えき</text><g id="eki_en18" serif:id="eki_en" transform="matrix(145.833,0,0,145.833,5889.32,1922.4)"></g><text x="5197.34px" y="1922.4px" style="font-family:'AppleSDGothicNeo-Regular', 'Apple SD Gothic Neo';font-size:145.833px;">stationTe<tspan x="5768.72px " y="1922.4px ">x</tspan>t</text></g><g id="M20"><circle cx="4730.59" cy="1478.94" r="223.2" style="fill:#ebebeb;stroke:#000c0c;stroke-width:20.83px;"/><g transform="matrix(186,0,0,186,4916.5,1549.9)"></g><text x="4540.97px" y="1549.9px" style="font-family:'AppleSDGothicNeo-Bold', 'Apple SD Gothic Neo';font-weight:700;font-size:186px;">M2<tspan x="4796.34px " y="1549.9px ">0</tspan></text><text id="eki_kanzi19" serif:id="eki_kanzi" x="4418.15px" y="1206.23px" style="font-family:'PingFangSC-Regular', 'PingFang SC', sans-serif;font-size:104.167px;">駅駅駅駅駅駅</text><text id="eki_furigana19" serif:id="eki_furigana" x="4660.18px" y="1097.32px" style="font-family:'PingFangSC-Regular', 'PingFang SC', sans-serif;font-size:70.833px;">えき</text><g id="eki_en19" serif:id="eki_en" transform="matrix(145.833,0,0,145.833,5076.36,1922.4)"></g><text x="4384.38px" y="1922.4px" style="font-family:'AppleSDGothicNeo-Regular', 'Apple SD Gothic Neo';font-size:145.833px;">stationTe<tspan x="4955.76px " y="1922.4px ">x</tspan>t</text></g><g id="M21"><circle cx="3927.32" cy="1478.94" r="223.2" style="fill:#ebebeb;stroke:#000c0c;stroke-width:20.83px;"/><g transform="matrix(186,0,0,186,4091.93,1551.39)"></g><text x="3765.87px" y="1551.39px" style="font-family:'AppleSDGothicNeo-Bold', 'Apple SD Gothic Neo';font-weight:700;font-size:186px;">M21</text><text id="eki_kanzi20" serif:id="eki_kanzi" x="3645.34px" y="1206.23px" style="font-family:'PingFangSC-Regular', 'PingFang SC', sans-serif;font-size:104.167px;">駅駅駅駅駅駅</text><text id="eki_furigana20" serif:id="eki_furigana" x="3887.38px" y="1097.32px" style="font-family:'PingFangSC-Regular', 'PingFang SC', sans-serif;font-size:70.833px;">えき</text><g id="eki_en20" serif:id="eki_en" transform="matrix(145.833,0,0,145.833,4303.56,1922.4)"></g><text x="3611.58px" y="1922.4px" style="font-family:'AppleSDGothicNeo-Regular', 'Apple SD Gothic Neo';font-size:145.833px;">stationTe<tspan x="4182.96px " y="1922.4px ">x</tspan>t</text></g><g id="M22"><circle cx="3124.04" cy="1478.94" r="223.2" style="fill:#ebebeb;stroke:#000c0c;stroke-width:20.83px;"/><g transform="matrix(186,0,0,186,3298.79,1551.02)"></g><text x="2942.97px" y="1551.02px" style="font-family:'AppleSDGothicNeo-Bold', 'Apple SD Gothic Neo';font-weight:700;font-size:186px;">M22</text><text id="eki_kanzi21" serif:id="eki_kanzi" x="2811.6px" y="1206.23px" style="font-family:'PingFangSC-Regular', 'PingFang SC', sans-serif;font-size:104.167px;">駅駅駅駅駅駅</text><text id="eki_furigana21" serif:id="eki_furigana" x="3053.64px" y="1097.32px" style="font-family:'PingFangSC-Regular', 'PingFang SC', sans-serif;font-size:70.833px;">えき</text><g id="eki_en21" serif:id="eki_en" transform="matrix(145.833,0,0,145.833,3469.81,1922.4)"></g><text x="2777.84px" y="1922.4px" style="font-family:'AppleSDGothicNeo-Regular', 'Apple SD Gothic Neo';font-size:145.833px;">stationTe<tspan x="3349.21px " y="1922.4px ">x</tspan>t</text></g><g id="M23"><circle cx="2320.77" cy="1478.94" r="223.2" style="fill:#ebebeb;stroke:#000c0c;stroke-width:20.83px;"/><g transform="matrix(186,0,0,186,2495.61,1550.83)"></g><text x="2139.6px" y="1550.83px" style="font-family:'AppleSDGothicNeo-Bold', 'Apple SD Gothic Neo';font-weight:700;font-size:186px;">M23</text><text id="eki_kanzi22" serif:id="eki_kanzi" x="1977.85px" y="1206.23px" style="font-family:'PingFangSC-Regular', 'PingFang SC', sans-serif;font-size:104.167px;">駅駅駅駅駅駅</text><text id="eki_furigana22" serif:id="eki_furigana" x="2219.89px" y="1097.32px" style="font-family:'PingFangSC-Regular', 'PingFang SC', sans-serif;font-size:70.833px;">えき</text><g id="eki_en22" serif:id="eki_en" transform="matrix(145.833,0,0,145.833,2636.07,1922.4)"></g><text x="1944.09px" y="1922.4px" style="font-family:'AppleSDGothicNeo-Regular', 'Apple SD Gothic Neo';font-size:145.833px;">stationTe<tspan x="2515.46px " y="1922.4px ">x</tspan>t</text></g><g id="M24"><circle cx="1517.49" cy="1478.94" r="223.2" style="fill:#ebebeb;stroke:#000c0c;stroke-width:20.83px;"/><g transform="matrix(186,0,0,186,1694.19,1551.02)"></g><text x="1331.49px" y="1551.02px" style="font-family:'AppleSDGothicNeo-Bold', 'Apple SD Gothic Neo';font-weight:700;font-size:186px;">M2<tspan x="1585.01px " y="1551.02px ">4</tspan></text><text id="eki_kanzi23" serif:id="eki_kanzi" x="1205.05px" y="1206.23px" style="font-family:'PingFangSC-Regular', 'PingFang SC', sans-serif;font-size:104.167px;">駅駅駅駅駅駅</text><text id="eki_furigana23" serif:id="eki_furigana" x="1447.09px" y="1097.32px" style="font-family:'PingFangSC-Regular', 'PingFang SC', sans-serif;font-size:70.833px;">えき</text><g id="eki_en23" serif:id="eki_en" transform="matrix(145.833,0,0,145.833,1863.26,1922.4)"></g><text x="1171.29px" y="1922.4px" style="font-family:'AppleSDGothicNeo-Regular', 'Apple SD Gothic Neo';font-size:145.833px;">stationTe<tspan x="1742.66px " y="1922.4px ">x</tspan>t</text></g><g id="M25"><circle cx="714.219" cy="1478.94" r="223.2" style="fill:#ebebeb;stroke:#000c0c;stroke-width:20.83px;"/><g transform="matrix(186,0,0,186,886.082,1551.2)"></g><text x="534.357px" y="1551.2px" style="font-family:'AppleSDGothicNeo-Bold', 'Apple SD Gothic Neo';font-weight:700;font-size:186px;">M25</text><text id="eki_kanzi24" serif:id="eki_kanzi" x="401.771px" y="1206.23px" style="font-family:'PingFangSC-Regular', 'PingFang SC', sans-serif;font-size:104.167px;">駅駅駅駅駅駅</text><text id="eki_furigana24" serif:id="eki_furigana" x="643.81px" y="1097.32px" style="font-family:'PingFangSC-Regular', 'PingFang SC', sans-serif;font-size:70.833px;">えき</text><g id="eki_en24" serif:id="eki_en" transform="matrix(145.833,0,0,145.833,1059.99,1922.4)"></g><text x="368.01px" y="1922.4px" style="font-family:'AppleSDGothicNeo-Regular', 'Apple SD Gothic Neo';font-size:145.833px;">stationTe<tspan x="939.385px " y="1922.4px ">x</tspan>t</text></g></svg>